<svg width="64" height="64" viewBox="0 0 64 64" fill="none" xmlns="http://www.w3.org/2000/svg">
<path d="M43 39H44.5C46.1569 39 47.5 40.3431 47.5 42V54C47.5 55.6569 46.1569 57 44.5 57H29.3924C28.2362 57 27.1829 56.3356 26.6849 55.2922L18.217 37.55C17.558 36.1692 18.2029 34.5188 19.6235 33.9506L19.8582 33.8567C21.0527 33.3789 22.4109 33.9339 22.929 35.1114L24.8822 39.5504C25.4779 40.9042 27.5 40.479 27.5 39V39V23.75C27.5 22.2312 28.7312 21 30.25 21V21C31.7688 21 33 22.2312 33 23.75V31.5M43 39V38C43 36.3431 41.6569 35 40 35H38M43 39V40.5M38 35V34.5C38 32.8431 36.6569 31.5 35 31.5H33M38 35V39M33 31.5V36.5" stroke="black" stroke-width="2" stroke-linecap="round"/>
<path d="M16 21H22.8444M37.1556 21H44M30 13.8444V7M35.0597 15.9403L39.8995 11.1005M24.9403 15.9403L20.1005 11.1005" stroke="black" stroke-width="2" stroke-linecap="round"/>
</svg>
