<?xml version="1.0" standalone="no"?>
<!DOCTYPE svg PUBLIC "-//W3C//DTD SVG 20010904//EN"
 "http://www.w3.org/TR/2001/REC-SVG-20010904/DTD/svg10.dtd">
<svg version="1.0" xmlns="http://www.w3.org/2000/svg"
 width="512.000000pt" height="512.000000pt" viewBox="0 0 512.000000 512.000000"
 preserveAspectRatio="xMidYMid meet">

<g transform="translate(0.000000,512.000000) scale(0.100000,-0.100000)"
fill="#000000" stroke="none">
<path d="M2500 5111 c-69 -22 -123 -67 -153 -126 -53 -106 -10 -248 93 -307
l40 -23 0 -167 0 -168 -200 0 -200 0 0 -188 0 -189 -137 -46 c-133 -44 -275
-106 -376 -163 l-48 -28 -107 107 -107 107 53 53 52 53 -55 54 -55 55 -157
-158 -158 -157 55 -55 54 -55 53 52 53 53 96 -96 96 -96 -73 -58 c-676 -540
-932 -1449 -634 -2250 105 -283 254 -514 465 -725 301 -302 672 -492 1105
-566 139 -24 471 -24 610 0 592 102 1077 425 1395 930 137 218 244 514 282
781 19 132 16 437 -5 561 -87 518 -338 951 -736 1269 l-73 58 96 96 96 96 53
-53 53 -52 54 55 55 55 -158 157 -157 158 -55 -55 -55 -54 52 -53 53 -53 -107
-107 -107 -107 -48 28 c-101 57 -243 119 -375 163 l-138 46 0 189 0 188 -200
0 -200 0 0 168 0 167 40 23 c160 91 152 329 -14 414 -43 22 -128 32 -166 19z
m119 -177 c28 -36 27 -79 -4 -109 -72 -73 -178 28 -114 109 16 20 29 26 59 26
30 0 43 -6 59 -26z m261 -867 l0 -94 -62 10 c-81 13 -435 13 -515 0 l-63 -10
0 94 0 93 320 0 320 0 0 -93z m-65 -248 c299 -40 599 -165 850 -353 103 -76
285 -258 361 -361 247 -330 367 -691 367 -1105 0 -236 -26 -398 -100 -610
-158 -454 -514 -847 -953 -1054 -550 -258 -1221 -223 -1730 91 -468 290 -779
753 -866 1293 -23 142 -23 418 0 558 66 403 234 732 520 1018 327 326 706 499
1186 538 67 6 274 -3 365 -15z"/>
<path d="M2317 3664 c-268 -42 -511 -139 -727 -292 -122 -86 -316 -280 -402
-402 -284 -403 -379 -914 -257 -1385 123 -476 440 -869 880 -1090 463 -234
1035 -234 1498 0 277 139 525 365 679 617 242 396 313 857 201 1303 -74 293
-220 546 -444 770 -270 270 -573 423 -953 480 -124 18 -353 18 -475 -1z m163
-304 l0 -160 80 0 80 0 0 160 0 160 63 -6 c166 -16 391 -81 542 -157 269 -134
517 -379 660 -649 85 -161 150 -379 170 -565 l6 -63 -161 0 -160 0 0 -80 0
-80 160 0 161 0 -7 -67 c-23 -250 -130 -530 -280 -740 -83 -115 -232 -264
-349 -348 -104 -75 -296 -173 -407 -209 -91 -29 -248 -62 -335 -71 l-63 -6 0
161 0 160 -80 0 -80 0 0 -160 0 -161 -62 6 c-182 18 -362 70 -533 155 -419
209 -716 594 -814 1055 -10 50 -22 120 -25 158 l-7 67 161 0 160 0 0 80 0 80
-160 0 -161 0 6 63 c49 467 306 886 700 1139 203 131 466 218 718 237 15 1 17
-13 17 -159z"/>
<path d="M3000 2555 c-324 -325 -336 -335 -365 -328 -55 14 -138 8 -180 -14
-181 -94 -175 -343 10 -429 65 -31 126 -31 190 0 113 53 166 165 134 280 l-11
39 336 336 c185 185 336 341 336 346 0 13 -92 105 -105 105 -6 0 -161 -151
-345 -335z m-385 -500 c50 -49 15 -135 -55 -135 -19 0 -40 9 -55 25 -16 15
-25 36 -25 55 0 19 9 40 25 55 15 16 36 25 55 25 19 0 40 -9 55 -25z"/>
<path d="M2160 1200 l0 -80 400 0 400 0 0 80 0 80 -400 0 -400 0 0 -80z"/>
</g>
</svg>
